<svg width="20" height="24" viewBox="0 0 20 24" fill="none" xmlns="http://www.w3.org/2000/svg">
<path d="M18.25 7.125H16.375V6.375C16.375 5.96137 16.0386 5.625 15.625 5.625C15.2114 5.625 14.875 5.96137 14.875 6.375V7.125H11.875V5.25C11.0477 5.25 10.375 4.57725 10.375 3.75C10.375 2.92275 11.0477 2.25 11.875 2.25V1.5C11.875 0.87975 12.3798 0.375 13 0.375H18.25C18.8702 0.375 19.375 0.87975 19.375 1.5V6C19.375 6.62025 18.8702 7.125 18.25 7.125Z" fill="#F0BC5E"/>
<path d="M13.375 9.375C13.375 8.54775 12.7023 7.875 11.875 7.875C11.0477 7.875 10.375 8.54775 10.375 9.375H8.875V7.5H8.125C7.71137 7.5 7.375 7.16363 7.375 6.75C7.375 6.33637 7.71137 6 8.125 6H8.875V2.625H7.86963C3.87512 2.625 0.625 5.87512 0.625 9.86963C0.625 12.0514 1.59363 14.0951 3.28225 15.4766L4.75 16.6777V17.6944C4.31463 17.8496 4 18.2621 4 18.7504C4 19.269 4.35437 19.7025 4.8325 19.8319C4.78037 19.9613 4.75 20.1019 4.75 20.25C4.75 20.7458 5.07438 21.1628 5.52025 21.3124C5.6755 22.6129 6.78363 23.625 8.125 23.625C9.46638 23.625 10.5745 22.6129 10.7297 21.3124C11.1756 21.1628 11.5 20.7458 11.5 20.25C11.5 20.1019 11.4696 19.9613 11.4175 19.8315C11.8956 19.7017 12.25 19.2686 12.25 18.75C12.25 18.2618 11.9354 17.8492 11.5 17.694V16.6774L12.9678 15.4762C14.6564 14.0951 15.625 12.0514 15.625 9.86963V9.375H13.375ZM7.86963 3.375H8.125V5.25C7.29775 5.25 6.625 5.92275 6.625 6.75C6.625 7.57725 7.29775 8.25 8.125 8.25V9.375H6.625C6.625 8.54775 5.95225 7.875 5.125 7.875C4.29775 7.875 3.625 8.54775 3.625 9.375H1.39375C1.64725 6.024 4.45487 3.375 7.86963 3.375ZM3.757 14.8961C2.30913 13.7115 1.45187 11.9843 1.38025 10.125H4.375V9.375C4.375 8.96137 4.71137 8.625 5.125 8.625C5.53863 8.625 5.875 8.96137 5.875 9.375V10.125H8.125V11.625C7.29775 11.625 6.625 12.2977 6.625 13.125C6.625 13.9523 7.29775 14.625 8.125 14.625V17.625H5.5V16.3223L3.757 14.8961ZM8.125 22.875C7.21975 22.875 6.46225 22.2296 6.28788 21.375H9.96212C9.78775 22.2296 9.03025 22.875 8.125 22.875ZM10.375 20.625H5.875C5.668 20.625 5.5 20.4566 5.5 20.25C5.5 20.0434 5.668 19.875 5.875 19.875H10.375C10.582 19.875 10.75 20.0434 10.75 20.25C10.75 20.4566 10.582 20.625 10.375 20.625ZM11.125 19.125H10.375H5.875H5.125C4.918 19.125 4.75 18.9566 4.75 18.75C4.75 18.5434 4.918 18.375 5.125 18.375H11.125C11.332 18.375 11.5 18.5434 11.5 18.75C11.5 18.9566 11.332 19.125 11.125 19.125ZM12.493 14.8961L10.75 16.3223V17.625H8.875V13.875H8.125C7.71137 13.875 7.375 13.5386 7.375 13.125C7.375 12.7114 7.71137 12.375 8.125 12.375H8.875V10.125H11.125V9.375C11.125 8.96137 11.4614 8.625 11.875 8.625C12.2886 8.625 12.625 8.96137 12.625 9.375V10.125H14.8698C14.7981 11.9843 13.9409 13.7115 12.493 14.8961Z" fill="black"/>
</svg>
