<svg width="24" height="24" viewBox="0 0 24 24" fill="none" xmlns="http://www.w3.org/2000/svg">
<path d="M12.25 19C12.113 19 11.978 18.963 11.856 18.889L9 17.131L6.144 18.889C5.912 19.032 5.623 19.037 5.384 18.905C5.146 18.772 5 18.521 5 18.25V4.75H6.5V16.908L8.606 15.612C8.848 15.464 9.151 15.464 9.393 15.612L11.499 16.908V4.75H13V18.25C13 18.521 12.854 18.772 12.616 18.905C12.502 18.968 12.376 19 12.25 19Z" fill="#F9BA48"/>
<path d="M21.25 24H3.75C2.233 24 1 22.767 1 21.25V2.75C1 1.233 2.233 0 3.75 0H19.25C19.664 0 20 0.336 20 0.75V4H21.25C21.664 4 22 4.336 22 4.75V23.25C22 23.664 21.664 24 21.25 24ZM2.5 5.199V21.25C2.5 21.939 3.061 22.5 3.75 22.5H20.5V5.5H3.75C3.3 5.5 2.875 5.392 2.5 5.199ZM3.75 1.5C3.061 1.5 2.5 2.061 2.5 2.75C2.5 3.439 3.061 4 3.75 4H18.5V1.5H3.75Z" fill="#333333"/>
</svg>
