<svg width="24" height="24" viewBox="0 0 24 24" fill="none" xmlns="http://www.w3.org/2000/svg">
<path d="M14.3066 9.94814H18.4163V0H0V18.4163H9.93666V16.0091H10.1432C11.36 16.0091 12.3499 15.0192 12.3499 13.8024C12.3499 12.5857 11.36 11.5958 10.1432 11.5958H9.93666V9.94809H12.7013V8.33747C12.7013 7.89492 13.0614 7.53483 13.504 7.53483C13.9466 7.53483 14.3066 7.89488 14.3066 8.33747V9.94814ZM1.40405 1.40405H8.53261V2.84409H8.18386C7.0163 2.84409 6.06637 3.79402 6.06637 4.96158C6.06637 6.12914 7.0163 7.07906 8.18386 7.07906H8.53261V8.54409H5.65739V10.2857C5.65739 10.692 5.32688 11.0226 4.92056 11.0226C4.51425 11.0226 4.18373 10.692 4.18373 10.2857V8.54409H1.40405V1.40405ZM10.1432 12.9998C10.5858 12.9998 10.9459 13.3599 10.9459 13.8025C10.9459 14.245 10.5858 14.6051 10.1432 14.6051H8.53261V17.0123H1.40405V9.94814H2.77969V10.2857C2.77969 11.4662 3.74006 12.4266 4.92056 12.4266C6.10106 12.4266 7.06144 11.4662 7.06144 10.2857V9.94814H8.53261V12.9998H10.1432ZM13.504 6.13083C12.2872 6.13083 11.2973 7.12073 11.2973 8.33752V8.54409H9.93666V5.67502H8.18386C7.79048 5.67502 7.47042 5.35495 7.47042 4.96158C7.47042 4.5682 7.79048 4.24814 8.18386 4.24814H9.93666V1.40405H17.0123V8.54409H15.7107V8.33752C15.7107 7.12073 14.7208 6.13083 13.504 6.13083Z" fill="#333333"/>
<path d="M21.1698 14.0325V13.8259C21.1698 12.6092 20.1799 11.6192 18.9631 11.6192C17.7464 11.6192 16.7565 12.6091 16.7565 13.8259V14.0325H14.0853V18.2074H15.696C16.1385 18.2074 16.4986 18.5674 16.4986 19.01C16.4986 19.4526 16.1385 19.8127 15.696 19.8127H14.0853V24H24V14.0325H21.1698ZM22.596 22.596H15.4895V21.2167H15.696C16.9128 21.2167 17.9027 20.2268 17.9027 19.01C17.9027 17.7932 16.9128 16.8033 15.696 16.8033H15.4895V15.4365H18.1606V13.8259C18.1606 13.3833 18.5206 13.0232 18.9632 13.0232C19.4058 13.0232 19.7659 13.3833 19.7659 13.8259V15.4365H22.596V22.596H22.596Z" fill="#F9BA48"/>
</svg>
