<svg width="24" height="24" viewBox="0 0 24 24" fill="none" xmlns="http://www.w3.org/2000/svg">
<path d="M14.1988 12.0219L23.5439 2.6765C24.1521 2.06862 24.1521 1.08576 23.5439 0.477883C22.936 -0.129997 21.9532 -0.129997 21.3453 0.477883L11.9999 9.82329L2.65474 0.477883C2.04658 -0.129997 1.064 -0.129997 0.456124 0.477883C-0.152041 1.08576 -0.152041 2.06862 0.456124 2.6765L9.80125 12.0219L0.456124 21.3673C-0.152041 21.9752 -0.152041 22.958 0.456124 23.5659C0.759067 23.8692 1.15739 24.0215 1.55543 24.0215C1.95347 24.0215 2.35151 23.8692 2.65474 23.5659L11.9999 14.2205L21.3453 23.5659C21.6485 23.8692 22.0466 24.0215 22.4446 24.0215C22.8426 24.0215 23.2407 23.8692 23.5439 23.5659C24.1521 22.958 24.1521 21.9752 23.5439 21.3673L14.1988 12.0219Z" fill="#0E0E0E"/>
</svg>
