<svg width="24" height="24" viewBox="0 0 24 24" fill="none" xmlns="http://www.w3.org/2000/svg">
<path d="M19.7929 12.5475H15.7122V16.7488H19.7929V12.5475ZM18.3866 15.3426H17.1185V13.9537H18.3866V15.3426Z" fill="#F9BA48"/>
<path d="M10.3927 16.7488H14.4734V9.95877H10.3927V16.7488ZM11.799 11.365H13.0671V15.3426H11.799V11.365Z" fill="#F9BA48"/>
<path d="M5.09783 8.43698V16.7488H9.17849V8.40633H10.5929L7.16812 4.22128L3.67035 8.43698H5.09783ZM6.50408 7.2239L7.16061 6.43261L7.77224 7.17998V15.3426H6.50408V7.2239Z" fill="#F9BA48"/>
<path d="M24 3.15609V1.74984H12.7031V0H11.2969V1.74984H0V3.15609H1.11914V18.3809H0V19.7871H7.80347L5.66498 23.1543L6.85205 23.9082L9.46931 19.7871H11.2969V24H12.7031V19.7871H14.5307L17.148 23.9082L18.335 23.1543L16.1965 19.7871H24V18.3809H22.8809V3.15609H24ZM21.4746 18.3809H2.52539V3.15609H21.4746V18.3809H21.4746Z" fill="#333333"/>
<path d="M16.0583 4.63046H19.938V6.03672H16.0583V4.63046Z" fill="#F9BA48"/>
<path d="M16.0583 7.44315H19.938V8.8494H16.0583V7.44315Z" fill="#F9BA48"/>
</svg>
